<?xml version="1.0" encoding="us-ascii" standalone="no"?><svg xmlns="http://www.w3.org/2000/svg" xmlns:xlink="http://www.w3.org/1999/xlink" contentStyleType="text/css" height="966px" preserveAspectRatio="none" style="width:792px;height:966px;background:#FFFFFF;" version="1.1" viewBox="0 0 792 966" width="792px" zoomAndPan="magnify"><defs/><g><rect fill="#A9B0B7" height="22.6406" style="stroke:#A9B0B7;stroke-width:1.0;" width="759" x="15" y="12.4551"/><ellipse cx="172" cy="50.0957" fill="#222222" rx="10" ry="10" style="stroke:#222222;stroke-width:1.0;"/><rect fill="#FFFFFF" height="35.0938" rx="12.5" ry="12.5" style="stroke:#181818;stroke-width:0.5;" width="177" x="83.5" y="80.0957"/><text fill="#000000" font-family="sans-serif" font-size="12" lengthAdjust="spacing" textLength="157" x="93.5" y="102.5527">Truy c&#7853;p ch&#7913;c n&#259;ng t&#236;m ki&#7871;m</text><rect fill="#FFFFFF" height="35.0938" rx="12.5" ry="12.5" style="stroke:#181818;stroke-width:0.5;" width="169" x="87.5" y="234.2832"/><text fill="#000000" font-family="sans-serif" font-size="12" lengthAdjust="spacing" textLength="149" x="97.5" y="256.7402">Nh&#7853;p t&#7915; kh&#243;a / th&#244;ng tin l&#7885;c</text><polygon fill="#FFFFFF" points="172,190.2832,184,202.2832,172,214.2832,160,202.2832,172,190.2832" style="stroke:#181818;stroke-width:0.5;"/><rect fill="#FFFFFF" height="50.1875" rx="12.5" ry="12.5" style="stroke:#181818;stroke-width:0.5;" width="118" x="21" y="633.1709"/><text fill="#000000" font-family="sans-serif" font-size="12" lengthAdjust="spacing" textLength="98" x="31" y="655.6279">Ch&#7885;n m&#7897;t s&#7921; ki&#7879;n</text><text fill="#000000" font-family="sans-serif" font-size="12" lengthAdjust="spacing" textLength="78" x="31" y="670.7217">&#273;&#7875; xem chi ti&#7871;t</text><line style="stroke:#000000;stroke-width:1.5;" x1="15" x2="15" y1="12.4551" y2="954.8271"/><rect fill="#FFFFFF" height="35.0938" rx="12.5" ry="12.5" style="stroke:#181818;stroke-width:0.5;" width="166" x="363" y="135.1895"/><text fill="#000000" font-family="sans-serif" font-size="12" lengthAdjust="spacing" textLength="146" x="373" y="157.6465">Hi&#7875;n th&#7883; giao di&#7879;n t&#236;m ki&#7871;m</text><rect fill="#FFFFFF" height="35.0938" rx="12.5" ry="12.5" style="stroke:#181818;stroke-width:0.5;" width="174" x="359" y="296.877"/><text fill="#000000" font-family="sans-serif" font-size="12" lengthAdjust="spacing" textLength="154" x="369" y="319.334">Ki&#7875;m tra &#273;&#7883;nh d&#7841;ng th&#244;ng tin</text><polygon fill="#FFFFFF" points="402,351.9707,490,351.9707,502,363.9707,490,375.9707,402,375.9707,390,363.9707,402,351.9707" style="stroke:#181818;stroke-width:0.5;"/><text fill="#000000" font-family="sans-serif" font-size="11" lengthAdjust="spacing" textLength="31" x="450" y="387.3896">H&#7907;p l&#7879;</text><text fill="#000000" font-family="sans-serif" font-size="11" lengthAdjust="spacing" textLength="88" x="402" y="368.4717">&#272;&#7883;nh d&#7841;ng h&#7907;p l&#7879;?</text><text fill="#000000" font-family="sans-serif" font-size="11" lengthAdjust="spacing" textLength="64" x="502" y="361.5537">Kh&#244;ng h&#7907;p l&#7879;</text><rect fill="#FFFFFF" height="35.0938" rx="12.5" ry="12.5" style="stroke:#181818;stroke-width:0.5;" width="158" x="367" y="408.8896"/><text fill="#000000" font-family="sans-serif" font-size="12" lengthAdjust="spacing" textLength="138" x="377" y="431.3467">Y&#234;u c&#7847;u t&#236;m ki&#7871;m s&#7921; ki&#7879;n</text><polygon fill="#FFFFFF" points="404,519.0771,488,519.0771,500,531.0771,488,543.0771,404,543.0771,392,531.0771,404,519.0771" style="stroke:#181818;stroke-width:0.5;"/><text fill="#000000" font-family="sans-serif" font-size="11" lengthAdjust="spacing" textLength="84" x="404" y="535.5781">T&#236;m th&#7845;y s&#7921; ki&#7879;n?</text><text fill="#000000" font-family="sans-serif" font-size="11" lengthAdjust="spacing" textLength="13" x="379" y="528.6602">C&#243;</text><text fill="#000000" font-family="sans-serif" font-size="11" lengthAdjust="spacing" textLength="31" x="500" y="528.6602">Kh&#244;ng</text><rect fill="#FFFFFF" height="35.0938" rx="12.5" ry="12.5" style="stroke:#181818;stroke-width:0.5;" width="167" x="270.5" y="563.0771"/><text fill="#000000" font-family="sans-serif" font-size="12" lengthAdjust="spacing" textLength="147" x="280.5" y="585.5342">Hi&#7875;n th&#7883; danh s&#225;ch s&#7921; ki&#7879;n</text><rect fill="#FFFFFF" height="50.1875" rx="12.5" ry="12.5" style="stroke:#181818;stroke-width:0.5;" width="105" x="301.5" y="703.3584"/><text fill="#000000" font-family="sans-serif" font-size="12" lengthAdjust="spacing" textLength="62" x="311.5" y="725.8154">Y&#234;u c&#7847;u l&#7845;y</text><text fill="#000000" font-family="sans-serif" font-size="12" lengthAdjust="spacing" textLength="85" x="311.5" y="740.9092">th&#244;ng tin chi ti&#7871;t</text><rect fill="#FFFFFF" height="50.1875" rx="12.5" ry="12.5" style="stroke:#181818;stroke-width:0.5;" width="116" x="296" y="828.6396"/><text fill="#000000" font-family="sans-serif" font-size="12" lengthAdjust="spacing" textLength="96" x="306" y="851.0967">Hi&#7875;n th&#7883; giao di&#7879;n</text><text fill="#000000" font-family="sans-serif" font-size="12" lengthAdjust="spacing" textLength="79" x="306" y="866.1904">chi ti&#7871;t s&#7921; ki&#7879;n</text><rect fill="#FFFFFF" height="50.1875" rx="12.5" ry="12.5" style="stroke:#181818;stroke-width:0.5;" width="161" x="457.5" y="563.0771"/><text fill="#000000" font-family="sans-serif" font-size="12" lengthAdjust="spacing" textLength="141" x="467.5" y="585.5342">Th&#244;ng b&#225;o kh&#244;ng t&#236;m th&#7845;y</text><text fill="#000000" font-family="sans-serif" font-size="12" lengthAdjust="spacing" textLength="90" x="467.5" y="600.6279">s&#7921; ki&#7879;n ph&#249; h&#7907;p</text><polygon fill="#FFFFFF" points="446,888.8271,458,900.8271,446,912.8271,434,900.8271,446,888.8271" style="stroke:#181818;stroke-width:0.5;"/><ellipse cx="446" cy="943.8271" fill="none" rx="11" ry="11" style="stroke:#222222;stroke-width:1.0;"/><ellipse cx="446" cy="943.8271" fill="#222222" rx="6" ry="6" style="stroke:#222222;stroke-width:1.0;"/><line style="stroke:#000000;stroke-width:1.5;" x1="264.5" x2="264.5" y1="12.4551" y2="954.8271"/><rect fill="#FFFFFF" height="35.0938" style="stroke:#181818;stroke-width:0.5;" width="65" x="703.5" y="463.9834"/><text fill="#000000" font-family="sans-serif" font-size="12" lengthAdjust="spacing" textLength="45" x="713.5" y="486.4404">SUKIEN</text><rect fill="#FFFFFF" height="35.0938" style="stroke:#181818;stroke-width:0.5;" width="65" x="628.5" y="773.5459"/><text fill="#000000" font-family="sans-serif" font-size="12" lengthAdjust="spacing" textLength="45" x="638.5" y="796.0029">SUKIEN</text><line style="stroke:#000000;stroke-width:1.5;" x1="622.5" x2="622.5" y1="12.4551" y2="954.8271"/><line style="stroke:#000000;stroke-width:1.5;" x1="772.5" x2="772.5" y1="12.4551" y2="954.8271"/><line style="stroke:#181818;stroke-width:1.0;" x1="172" x2="172" y1="60.0957" y2="80.0957"/><polygon fill="#181818" points="168,70.0957,172,80.0957,176,70.0957,172,74.0957" style="stroke:#181818;stroke-width:1.0;"/><line style="stroke:#181818;stroke-width:1.0;" x1="172" x2="172" y1="214.2832" y2="234.2832"/><polygon fill="#181818" points="168,224.2832,172,234.2832,176,224.2832,172,228.2832" style="stroke:#181818;stroke-width:1.0;"/><line style="stroke:#181818;stroke-width:1.0;" x1="446" x2="446" y1="331.9707" y2="351.9707"/><polygon fill="#181818" points="442,341.9707,446,351.9707,450,341.9707,446,345.9707" style="stroke:#181818;stroke-width:1.0;"/><line style="stroke:#181818;stroke-width:1.0;" x1="446" x2="446" y1="375.9707" y2="408.8896"/><polygon fill="#181818" points="442,398.8896,446,408.8896,450,398.8896,446,402.8896" style="stroke:#181818;stroke-width:1.0;"/><line style="stroke:#181818;stroke-width:1.0;" x1="392" x2="354" y1="531.0771" y2="531.0771"/><line style="stroke:#181818;stroke-width:1.0;" x1="354" x2="354" y1="531.0771" y2="563.0771"/><polygon fill="#181818" points="350,553.0771,354,563.0771,358,553.0771,354,557.0771" style="stroke:#181818;stroke-width:1.0;"/><line style="stroke:#181818;stroke-width:1.0;" x1="500" x2="538" y1="531.0771" y2="531.0771"/><line style="stroke:#181818;stroke-width:1.0;" x1="538" x2="538" y1="531.0771" y2="563.0771"/><polygon fill="#181818" points="534,553.0771,538,563.0771,542,553.0771,538,557.0771" style="stroke:#181818;stroke-width:1.0;"/><line style="stroke:#181818;stroke-width:1.0;" x1="354" x2="354" y1="878.8271" y2="900.8271"/><line style="stroke:#181818;stroke-width:1.0;" x1="354" x2="434" y1="900.8271" y2="900.8271"/><polygon fill="#181818" points="424,896.8271,434,900.8271,424,904.8271,428,900.8271" style="stroke:#181818;stroke-width:1.0;"/><line style="stroke:#181818;stroke-width:1.0;" x1="538" x2="538" y1="613.2646" y2="900.8271"/><line style="stroke:#181818;stroke-width:1.0;" x1="538" x2="458" y1="900.8271" y2="900.8271"/><polygon fill="#181818" points="468,896.8271,458,900.8271,468,904.8271,464,900.8271" style="stroke:#181818;stroke-width:1.0;"/><line style="stroke:#181818;stroke-width:1.0;" x1="446" x2="446" y1="912.8271" y2="932.8271"/><polygon fill="#181818" points="442,922.8271,446,932.8271,450,922.8271,446,926.8271" style="stroke:#181818;stroke-width:1.0;"/><line style="stroke:#181818;stroke-width:1.0;" x1="172" x2="172" y1="115.1895" y2="120.1895"/><line style="stroke:#181818;stroke-width:1.0;" x1="172" x2="446" y1="120.1895" y2="120.1895"/><line style="stroke:#181818;stroke-width:1.0;" x1="446" x2="446" y1="120.1895" y2="135.1895"/><polygon fill="#181818" points="442,125.1895,446,135.1895,450,125.1895,446,129.1895" style="stroke:#181818;stroke-width:1.0;"/><line style="stroke:#181818;stroke-width:1.0;" x1="172" x2="172" y1="269.377" y2="279.377"/><line style="stroke:#181818;stroke-width:1.0;" x1="172" x2="446" y1="279.377" y2="279.377"/><line style="stroke:#181818;stroke-width:1.0;" x1="446" x2="446" y1="279.377" y2="296.877"/><polygon fill="#181818" points="442,286.877,446,296.877,450,286.877,446,290.877" style="stroke:#181818;stroke-width:1.0;"/><line style="stroke:#181818;stroke-width:1.0;" x1="502" x2="545" y1="363.9707" y2="363.9707"/><polygon fill="#181818" points="541,289.377,545,279.377,549,289.377,545,285.377" style="stroke:#181818;stroke-width:1.0;"/><line style="stroke:#181818;stroke-width:1.0;" x1="545" x2="545" y1="202.2832" y2="363.9707"/><line style="stroke:#181818;stroke-width:1.0;" x1="545" x2="184" y1="202.2832" y2="202.2832"/><polygon fill="#181818" points="194,198.2832,184,202.2832,194,206.2832,190,202.2832" style="stroke:#181818;stroke-width:1.0;"/><line style="stroke:#181818;stroke-width:1.0;" x1="446" x2="446" y1="170.2832" y2="175.2832"/><line style="stroke:#181818;stroke-width:1.0;" x1="446" x2="172" y1="175.2832" y2="175.2832"/><line style="stroke:#181818;stroke-width:1.0;" x1="172" x2="172" y1="175.2832" y2="190.2832"/><polygon fill="#181818" points="168,180.2832,172,190.2832,176,180.2832,172,184.2832" style="stroke:#181818;stroke-width:1.0;"/><line style="stroke:#181818;stroke-width:1.0;" x1="446" x2="446" y1="443.9834" y2="448.9834"/><line style="stroke:#181818;stroke-width:1.0;" x1="446" x2="736" y1="448.9834" y2="448.9834"/><line style="stroke:#181818;stroke-width:1.0;" x1="736" x2="736" y1="448.9834" y2="463.9834"/><polygon fill="#181818" points="732,453.9834,736,463.9834,740,453.9834,736,457.9834" style="stroke:#181818;stroke-width:1.0;"/><line style="stroke:#181818;stroke-width:1.0;" x1="354" x2="354" y1="598.1709" y2="615.6709"/><line style="stroke:#181818;stroke-width:1.0;" x1="354" x2="80" y1="615.6709" y2="615.6709"/><line style="stroke:#181818;stroke-width:1.0;" x1="80" x2="80" y1="615.6709" y2="633.1709"/><polygon fill="#181818" points="76,623.1709,80,633.1709,84,623.1709,80,627.1709" style="stroke:#181818;stroke-width:1.0;"/><line style="stroke:#181818;stroke-width:1.0;" x1="80" x2="80" y1="683.3584" y2="688.3584"/><line style="stroke:#181818;stroke-width:1.0;" x1="80" x2="354" y1="688.3584" y2="688.3584"/><line style="stroke:#181818;stroke-width:1.0;" x1="354" x2="354" y1="688.3584" y2="703.3584"/><polygon fill="#181818" points="350,693.3584,354,703.3584,358,693.3584,354,697.3584" style="stroke:#181818;stroke-width:1.0;"/><line style="stroke:#181818;stroke-width:1.0;" x1="354" x2="354" y1="753.5459" y2="758.5459"/><line style="stroke:#181818;stroke-width:1.0;" x1="354" x2="661" y1="758.5459" y2="758.5459"/><line style="stroke:#181818;stroke-width:1.0;" x1="661" x2="661" y1="758.5459" y2="773.5459"/><polygon fill="#181818" points="657,763.5459,661,773.5459,665,763.5459,661,767.5459" style="stroke:#181818;stroke-width:1.0;"/><line style="stroke:#181818;stroke-width:1.0;" x1="661" x2="661" y1="808.6396" y2="813.6396"/><line style="stroke:#181818;stroke-width:1.0;" x1="661" x2="354" y1="813.6396" y2="813.6396"/><line style="stroke:#181818;stroke-width:1.0;" x1="354" x2="354" y1="813.6396" y2="828.6396"/><polygon fill="#181818" points="350,818.6396,354,828.6396,358,818.6396,354,822.6396" style="stroke:#181818;stroke-width:1.0;"/><line style="stroke:#181818;stroke-width:1.0;" x1="736" x2="736" y1="499.0771" y2="504.0771"/><line style="stroke:#181818;stroke-width:1.0;" x1="736" x2="446" y1="504.0771" y2="504.0771"/><line style="stroke:#181818;stroke-width:1.0;" x1="446" x2="446" y1="504.0771" y2="519.0771"/><polygon fill="#181818" points="442,509.0771,446,519.0771,450,509.0771,446,513.0771" style="stroke:#181818;stroke-width:1.0;"/><text fill="#000000" font-family="sans-serif" font-size="18" lengthAdjust="spacing" textLength="96" x="91.75" y="31.1406">Kh&#225;ch h&#224;ng</text><text fill="#000000" font-family="sans-serif" font-size="18" lengthAdjust="spacing" textLength="73" x="407" y="31.1406">H&#7879; th&#7889;ng</text><text fill="#000000" font-family="sans-serif" font-size="18" lengthAdjust="spacing" textLength="111" x="642" y="31.1406">C&#417; s&#7903; d&#7919; li&#7879;u</text><!--SRC=[TLCnRzD05DxzAvx4uYoq6oA9WaX02ehK0SA0bELYNtsddC_M-KAnQASC6L0bEZ91X11g0I7KBiG3WoF-n_qJtja9iPDsi6H_zxxlU-zxvsJ2PKmK2I4vuQ4WaWwv5hHBl4cWegdqUv685Dnx_B1xs7tWCEvJI3HLDD9fJ1sddUXKq8v3FCrVSvq-uIImQcyTW0rMV03iQfumhcbv4YcVgX8T2on3z0oV-_vupNrUqfIa2WwBqpEdVR3sTau7B5zu35Z-IGQdJgA9qavpgAOfU6Rv8mQFcUpI0xcQoG1q_Zs42JVBFs4BkNsJpK5ZmONbDllSP3DP0EyWu2G27v6vtANLBHMDAT7OMFE85OxQPDzWml9h0WSebjzOOov1cEpSQs7XZYyo1zOv1Aq8h2xGNJBmpN9XYV_vhRMJ3KzGS5VlQuMezZcs7lD73U09k8EIkSKR82CDRdyBx4VmAh-Qsk2-Jgj3GsAoN_OTmx01zFukBFGHlREV82m-HVABbuDdJuzQq6xxuqvdJvmVWpkqeeWilwHLKMnPCoh1xUNN3Hj8RHK-mJ6J8lDQ8m0spFesaDj3qhc4q6GVT9KmaZRR6RoX8TuAZfdYR7eZixUJIXJ2zZkIbLtkys_F17LsKhd3xQwxDv9Rg_hqL2Hqi-N6hPh3ijznleZiVRpP_01b_YDPaOEOvR_BkuBAqkV73lvBKVmF]--></g></svg>